<?xml version="1.0" encoding="UTF-8"?>
<!DOCTYPE svg PUBLIC "-//W3C//DTD SVG 1.1//EN" "http://www.w3.org/Graphics/SVG/1.1/DTD/svg11.dtd">
<!-- Creator: CorelDRAW X6 -->
<svg xmlns="http://www.w3.org/2000/svg" xml:space="preserve" width="76.7464mm" height="11.8073mm" version="1.1" style="shape-rendering:geometricPrecision; text-rendering:geometricPrecision; image-rendering:optimizeQuality; fill-rule:evenodd; clip-rule:evenodd"
viewBox="0 0 312 48"
 xmlns:xlink="http://www.w3.org/1999/xlink">
 <defs>
  <style type="text/css">
   <![CDATA[
    .fil3 {fill:none}
    .fil1 {fill:#C7C7C7;fill-rule:nonzero}
    .fil2 {fill:red;fill-rule:nonzero}
    .fil0 {fill:white;fill-rule:nonzero}
   ]]>
  </style>
 </defs>
 <g id="Layer_x0020_1">
  <metadata id="CorelCorpID_0Corel-Layer"/>
  <path class="fil0" d="M13 9l-11 0 0 -7 31 0 0 7 -11 0 0 37 -8 0 0 -37zm26 -7l28 0 0 7 -19 0 0 11 19 0 0 7 -19 0 0 11 19 0 0 7 -28 0 0 -45zm59 37c2,0 4,0 6,-1 2,-1 3,-1 4,-2l4 7c-1,1 -3,2 -5,3 -3,1 -6,1 -9,1 -3,0 -6,-1 -9,-2 -3,-1 -5,-3 -8,-5 -2,-2 -4,-5 -5,-7 -1,-3 -2,-6 -2,-9 0,-3 1,-6 2,-9 1,-3 3,-5 5,-7 2,-2 5,-4 8,-5 3,-1 6,-2 9,-2 4,0 7,0 9,1 3,1 4,2 5,3l-4 7c-1,-1 -2,-1 -4,-2 -2,-1 -4,-1 -6,-1 -2,0 -5,0 -6,1 -2,1 -3,2 -5,3 -1,1 -2,3 -3,5 -1,2 -1,4 -1,6 0,2 0,4 1,6 1,2 2,3 3,5 1,1 3,2 5,3 2,1 4,1 6,1zm47 -11l-18 0 0 19 -8 0 0 -45 8 0 0 19 18 0 0 -19 8 0 0 45 -8 0 0 -19z"/>
  <g id="_641518424">
   <path class="fil1" d="M167 2l8 0 0 37 17 0 0 7 -25 0 0 -45zm38 22c0,3 1,5 2,8 1,2 3,4 5,5 2,1 4,2 7,2 3,0 5,-1 7,-2 2,-1 4,-3 5,-5 1,-2 2,-5 2,-8 0,-3 -1,-5 -2,-8 -1,-2 -3,-4 -5,-5 -2,-1 -4,-2 -7,-2 -3,0 -5,1 -7,2 -2,1 -4,3 -5,5 -1,2 -2,5 -2,8zm-9 0c0,-3 1,-6 2,-9 1,-3 3,-5 5,-7 2,-2 4,-4 7,-5 3,-1 6,-2 9,-2 3,0 6,1 9,2 3,1 5,3 7,5 2,2 4,5 5,7 1,3 2,6 2,9 0,3 -1,6 -2,9 -1,3 -3,5 -5,7 -2,2 -4,4 -7,5 -3,1 -6,2 -9,2 -3,0 -6,-1 -9,-2 -3,-1 -5,-3 -7,-5 -2,-2 -4,-5 -5,-7 -1,-3 -2,-6 -2,-9zm72 -2l23 0 0 3c0,3 -1,6 -2,9 -1,3 -3,5 -5,7 -2,2 -4,4 -7,5 -3,1 -6,2 -9,2 -3,0 -6,-1 -9,-2 -3,-1 -5,-3 -7,-5 -2,-2 -4,-5 -5,-7 -1,-3 -2,-6 -2,-9 0,-3 1,-6 2,-9 1,-3 3,-5 5,-7 2,-2 4,-4 7,-5 3,-1 6,-2 9,-2 3,0 5,0 7,1 2,1 4,1 5,2 2,1 3,2 4,3 1,1 2,2 3,4l-8 4c-1,-2 -3,-3 -4,-4 -2,-1 -4,-2 -7,-2 -2,0 -4,0 -6,1 -2,1 -3,2 -4,3 -1,1 -2,3 -3,5 -1,2 -1,4 -1,6 0,2 0,4 1,6 1,2 2,3 3,5 1,1 3,3 4,3 2,1 4,1 6,1 2,0 4,0 5,-1 2,-1 3,-1 4,-2 1,-1 2,-2 3,-4 1,-1 1,-3 1,-4l-13 0 0 -7z"/>
   <polygon class="fil2" points="300,36 311,36 311,46 300,46 "/>
  </g>
  <rect class="fil3" width="312.085" height="48.0136"/>
 </g>
</svg>
